Preview_Amstelvar-Italic-010-wght_100.00_wdth_150.00_opsz_14.00_GRAD_0.00_YOPQ_54.00_YTLC_500.00_YTUC_750.00_YTAS_767.00_YTDE_-240.00.ufo
<glyph name="quotedbl" format="2">
  <advance width="863"/>
  <unicode hex="0022"/>
  <outline>
    <contour>
      <point x="239.0" y="964.0" type="line"/>
      <point x="299.0" y="1423.0" type="line" smooth="yes"/>
      <point x="307.0" y="1482.0"/>
      <point x="339.0" y="1558.0"/>
      <point x="378.0" y="1558.0" type="qcurve" smooth="yes"/>
      <point x="418.0" y="1558.0"/>
      <point x="424.0" y="1477.0"/>
      <point x="409.0" y="1423.0" type="qcurve" smooth="yes"/>
      <point x="283.0" y="964.0" type="line"/>
    </contour>
    <contour>
      <point x="559.0" y="964.0" type="line"/>
      <point x="619.0" y="1423.0" type="line" smooth="yes"/>
      <point x="627.0" y="1482.0"/>
      <point x="659.0" y="1558.0"/>
      <point x="698.0" y="1558.0" type="qcurve" smooth="yes"/>
      <point x="738.0" y="1558.0"/>
      <point x="744.0" y="1477.0"/>
      <point x="729.0" y="1423.0" type="qcurve" smooth="yes"/>
      <point x="603.0" y="964.0" type="line"/>
    </contour>
  </outline>
</glyph>
<glyph name="percent" format="2">
  <advance width="2347"/>
  <unicode hex="0025"/>
  <outline>
    <contour>
      <point x="77.0" y="1079.0" type="qcurve" smooth="yes"/>
      <point x="97.0" y="1271.0"/>
      <point x="369.0" y="1520.0"/>
      <point x="561.0" y="1520.0" type="qcurve" smooth="yes"/>
      <point x="753.0" y="1520.0"/>
      <point x="968.0" y="1291.0"/>
      <point x="951.0" y="1085.0" type="qcurve" smooth="yes"/>
      <point x="933.0" y="889.0"/>
      <point x="657.0" y="639.0"/>
      <point x="466.0" y="639.0" type="qcurve" smooth="yes"/>
      <point x="273.0" y="639.0"/>
      <point x="55.0" y="874.0"/>
    </contour>
    <contour>
      <point x="147.0" y="1081.0" type="qcurve" smooth="yes"/>
      <point x="122.0" y="890.0"/>
      <point x="303.0" y="690.0"/>
      <point x="467.0" y="690.0" type="qcurve" smooth="yes"/>
      <point x="634.0" y="690.0"/>
      <point x="863.0" y="896.0"/>
      <point x="885.0" y="1086.0" type="qcurve" smooth="yes"/>
      <point x="904.0" y="1260.0"/>
      <point x="711.0" y="1473.0"/>
      <point x="560.0" y="1473.0" type="qcurve" smooth="yes"/>
      <point x="413.0" y="1473.0"/>
      <point x="168.0" y="1260.0"/>
    </contour>
    <contour>
      <point x="388.0" y="25.0" type="line"/>
      <point x="1779.0" y="1529.0" type="line"/>
      <point x="1833.0" y="1457.0" type="line"/>
      <point x="442.0" y="-47.0" type="line"/>
    </contour>
    <contour>
      <point x="1286.0" y="418.0" type="qcurve" smooth="yes"/>
      <point x="1306.0" y="610.0"/>
      <point x="1578.0" y="859.0"/>
      <point x="1770.0" y="859.0" type="qcurve" smooth="yes"/>
      <point x="1962.0" y="859.0"/>
      <point x="2177.0" y="630.0"/>
      <point x="2160.0" y="424.0" type="qcurve" smooth="yes"/>
      <point x="2142.0" y="228.0"/>
      <point x="1866.0" y="-22.0"/>
      <point x="1675.0" y="-22.0" type="qcurve" smooth="yes"/>
      <point x="1482.0" y="-22.0"/>
      <point x="1264.0" y="213.0"/>
    </contour>
    <contour>
      <point x="1356.0" y="420.0" type="qcurve" smooth="yes"/>
      <point x="1331.0" y="229.0"/>
      <point x="1512.0" y="29.0"/>
      <point x="1676.0" y="29.0" type="qcurve" smooth="yes"/>
      <point x="1843.0" y="29.0"/>
      <point x="2072.0" y="235.0"/>
      <point x="2094.0" y="425.0" type="qcurve" smooth="yes"/>
      <point x="2113.0" y="599.0"/>
      <point x="1920.0" y="812.0"/>
      <point x="1769.0" y="812.0" type="qcurve" smooth="yes"/>
      <point x="1622.0" y="812.0"/>
      <point x="1377.0" y="599.0"/>
    </contour>
  </outline>
</glyph>
<glyph name="quotesingle" format="2">
  <advance width="543"/>
  <unicode hex="0027"/>
  <outline>
    <contour>
      <point x="249.0" y="964.0" type="line"/>
      <point x="305.0" y="1423.0" type="line" smooth="yes"/>
      <point x="312.0" y="1482.0"/>
      <point x="349.0" y="1558.0"/>
      <point x="388.0" y="1558.0" type="qcurve" smooth="yes"/>
      <point x="428.0" y="1558.0"/>
      <point x="438.0" y="1477.0"/>
      <point x="423.0" y="1423.0" type="qcurve" smooth="yes"/>
      <point x="293.0" y="964.0" type="line"/>
    </contour>
  </outline>
</glyph>
<glyph name="hyphen" format="2">
  <advance width="1095"/>
  <unicode hex="002D"/>
  <outline>
    <contour>
      <point x="56.0" y="589.0" type="line"/>
      <point x="56.0" y="678.0" type="line"/>
      <point x="492.0" y="674.0" type="line"/>
      <point x="927.0" y="678.0" type="line"/>
      <point x="927.0" y="589.0" type="line"/>
      <point x="492.0" y="593.0" type="line"/>
    </contour>
  </outline>
</glyph>
<glyph name="one" format="2">
  <advance width="808"/>
  <unicode hex="0031"/>
  <outline>
    <contour>
      <point x="237.0" y="-14.0" type="line"/>
      <point x="259.0" y="48.0"/>
      <point x="294.0" y="169.0"/>
      <point x="312.0" y="276.0" type="qcurve" smooth="yes"/>
      <point x="443.0" y="1053.0" type="line"/>
      <point x="494.0" y="1407.0" type="line"/>
      <point x="65.0" y="1185.0" type="line"/>
      <point x="49.0" y="1232.0" type="line"/>
      <point x="616.0" y="1544.0" type="line"/>
      <point x="635.0" y="1528.0" type="line"/>
      <point x="606.0" y="1480.0"/>
      <point x="570.0" y="1346.0"/>
      <point x="561.0" y="1294.0" type="qcurve" smooth="yes"/>
      <point x="462.0" y="719.0" type="line"/>
      <point x="372.0" y="88.0" type="line"/>
      <point x="263.0" y="-26.0" type="line"/>
    </contour>
  </outline>
</glyph>
<glyph name="C" format="2">
  <advance width="1659"/>
  <unicode hex="0043"/>
  <outline>
    <contour>
      <point x="166.0" y="839.0" type="qcurve" smooth="yes"/>
      <point x="250.0" y="1154.0"/>
      <point x="795.0" y="1544.0"/>
      <point x="1210.0" y="1523.0" type="qcurve" smooth="yes"/>
      <point x="1311.0" y="1518.0"/>
      <point x="1488.0" y="1473.0"/>
      <point x="1554.0" y="1448.0" type="qcurve"/>
      <point x="1589.0" y="1434.0" type="line"/>
      <point x="1620.0" y="1420.0" type="line"/>
      <point x="1559.0" y="1109.0" type="line"/>
      <point x="1484.0" y="1109.0" type="line"/>
      <point x="1492.0" y="1339.0" type="line"/>
      <point x="1449.0" y="1391.0"/>
      <point x="1254.0" y="1456.0"/>
      <point x="1143.0" y="1459.0" type="qcurve" smooth="yes"/>
      <point x="853.0" y="1461.0"/>
      <point x="336.0" y="1124.0"/>
      <point x="266.0" y="842.0" type="qcurve" smooth="yes"/>
      <point x="183.0" y="502.0"/>
      <point x="441.0" y="88.0"/>
      <point x="747.0" y="57.0" type="qcurve" smooth="yes"/>
      <point x="986.0" y="34.0"/>
      <point x="1348.0" y="186.0"/>
      <point x="1465.0" y="311.0" type="qcurve"/>
      <point x="1497.0" y="297.0" type="line"/>
      <point x="1524.0" y="254.0" type="line"/>
      <point x="1372.0" y="92.0"/>
      <point x="952.0" y="-35.0"/>
      <point x="708.0" y="-16.0" type="qcurve" smooth="yes"/>
      <point x="367.0" y="10.0"/>
      <point x="74.0" y="487.0"/>
    </contour>
  </outline>
</glyph>
<glyph name="E" format="2">
  <advance width="1524"/>
  <unicode hex="0045"/>
  <outline>
    <contour>
      <point x="-10.0" y="0.0" type="line"/>
      <point x="0.0" y="48.0" type="line"/>
      <point x="220.0" y="78.0" type="line"/>
      <point x="373.0" y="806.0" type="line"/>
      <point x="480.0" y="1427.0" type="line"/>
      <point x="251.0" y="1453.0" type="line"/>
      <point x="253.0" y="1500.0" type="line"/>
      <point x="1475.0" y="1500.0" type="line"/>
      <point x="1446.0" y="1207.0" type="line"/>
      <point x="1377.0" y="1207.0" type="line"/>
      <point x="1360.0" y="1432.0" type="line"/>
      <point x="614.0" y="1432.0" type="line"/>
      <point x="579.0" y="1412.0" type="line"/>
      <point x="462.0" y="794.0" type="line"/>
      <point x="335.0" y="162.0" type="line"/>
      <point x="403.0" y="68.0" type="line"/>
      <point x="1158.0" y="68.0" type="line"/>
      <point x="1271.0" y="333.0" type="line"/>
      <point x="1341.0" y="333.0" type="line"/>
      <point x="1272.0" y="0.0" type="line"/>
    </contour>
    <contour>
      <point x="419.0" y="745.0" type="line"/>
      <point x="438.0" y="826.0" type="line"/>
      <point x="1161.0" y="831.0" type="line"/>
      <point x="1226.0" y="1002.0" type="line"/>
      <point x="1280.0" y="1002.0" type="line"/>
      <point x="1195.0" y="567.0" type="line"/>
      <point x="1145.0" y="567.0" type="line"/>
      <point x="1146.0" y="757.0" type="line"/>
    </contour>
  </outline>
</glyph>
<glyph name="F" format="2">
  <advance width="1431"/>
  <unicode hex="0046"/>
  <outline>
    <contour>
      <point x="0.0" y="0.0" type="line"/>
      <point x="10.0" y="48.0" type="line"/>
      <point x="229.0" y="78.0" type="line"/>
      <point x="382.0" y="806.0" type="line"/>
      <point x="491.0" y="1427.0" type="line"/>
      <point x="251.0" y="1453.0" type="line"/>
      <point x="253.0" y="1500.0" type="line"/>
      <point x="1475.0" y="1500.0" type="line"/>
      <point x="1413.0" y="1197.0" type="line"/>
      <point x="1334.0" y="1197.0" type="line"/>
      <point x="1347.0" y="1422.0" type="line"/>
      <point x="634.0" y="1432.0" type="line"/>
      <point x="589.0" y="1412.0" type="line"/>
      <point x="469.0" y="794.0" type="line"/>
      <point x="331.0" y="78.0" type="line"/>
      <point x="540.0" y="48.0" type="line"/>
      <point x="532.0" y="0.0" type="line"/>
    </contour>
    <contour>
      <point x="416.0" y="741.0" type="line"/>
      <point x="435.0" y="797.0" type="line"/>
      <point x="1158.0" y="802.0" type="line"/>
      <point x="1223.0" y="973.0" type="line"/>
      <point x="1277.0" y="973.0" type="line"/>
      <point x="1192.0" y="543.0" type="line"/>
      <point x="1142.0" y="543.0" type="line"/>
      <point x="1146.0" y="733.0" type="line"/>
    </contour>
  </outline>
</glyph>
<glyph name="O" format="2">
  <advance width="2000"/>
  <unicode hex="004F"/>
  <outline>
    <contour>
      <point x="84.0" y="874.0" type="qcurve" smooth="yes"/>
      <point x="153.0" y="1225.0"/>
      <point x="772.0" y="1567.0"/>
      <point x="1147.0" y="1520.0" type="qcurve" smooth="yes"/>
      <point x="1537.0" y="1470.0"/>
      <point x="1916.0" y="990.0"/>
      <point x="1856.0" y="660.0" type="qcurve" smooth="yes"/>
      <point x="1788.0" y="286.0"/>
      <point x="1194.0" y="-56.0"/>
      <point x="800.0" y="-19.0" type="qcurve" smooth="yes"/>
      <point x="419.0" y="15.0"/>
      <point x="13.0" y="506.0"/>
    </contour>
    <contour>
      <point x="176.0" y="868.0" type="qcurve" smooth="yes"/>
      <point x="106.0" y="524.0"/>
      <point x="468.0" y="82.0"/>
      <point x="803.0" y="49.0" type="qcurve" smooth="yes"/>
      <point x="1169.0" y="12.0"/>
      <point x="1702.0" y="333.0"/>
      <point x="1765.0" y="649.0" type="qcurve" smooth="yes"/>
      <point x="1823.0" y="957.0"/>
      <point x="1496.0" y="1397.0"/>
      <point x="1149.0" y="1444.0" type="qcurve" smooth="yes"/>
      <point x="800.0" y="1493.0"/>
      <point x="241.0" y="1192.0"/>
    </contour>
  </outline>
</glyph>
<glyph name="U" format="2">
  <advance width="2023"/>
  <unicode hex="0055"/>
  <outline>
    <contour>
      <point x="203.0" y="1453.0" type="line"/>
      <point x="208.0" y="1500.0" type="line"/>
      <point x="748.0" y="1500.0" type="line"/>
      <point x="741.0" y="1453.0" type="line"/>
      <point x="523.0" y="1427.0" type="line"/>
      <point x="401.0" y="794.0" type="line" smooth="yes"/>
      <point x="383.0" y="702.0"/>
      <point x="346.0" y="499.0"/>
      <point x="352.0" y="379.0" type="qcurve" smooth="yes"/>
      <point x="357.0" y="203.0"/>
      <point x="662.0" y="43.0"/>
      <point x="912.0" y="46.0" type="qcurve" smooth="yes"/>
      <point x="1176.0" y="50.0"/>
      <point x="1481.0" y="270.0"/>
      <point x="1527.0" y="499.0" type="qcurve" smooth="yes"/>
      <point x="1588.0" y="794.0" type="line"/>
      <point x="1700.0" y="1427.0" type="line"/>
      <point x="1459.0" y="1453.0" type="line"/>
      <point x="1463.0" y="1500.0" type="line"/>
      <point x="2026.0" y="1500.0" type="line"/>
      <point x="2022.0" y="1453.0" type="line"/>
      <point x="1792.0" y="1427.0" type="line"/>
      <point x="1670.0" y="794.0" type="line"/>
      <point x="1612.0" y="493.0" type="line" smooth="yes"/>
      <point x="1561.0" y="229.0"/>
      <point x="1222.0" y="-25.0"/>
      <point x="904.0" y="-25.0" type="qcurve" smooth="yes"/>
      <point x="625.0" y="-25.0"/>
      <point x="282.0" y="179.0"/>
      <point x="272.0" y="365.0" type="qcurve" smooth="yes"/>
      <point x="268.0" y="445.0"/>
      <point x="283.0" y="615.0"/>
      <point x="316.0" y="794.0" type="qcurve" smooth="yes"/>
      <point x="432.0" y="1427.0" type="line"/>
    </contour>
  </outline>
</glyph>
<glyph name="V" format="2">
  <advance width="1933"/>
  <unicode hex="0056"/>
  <outline>
    <contour>
      <point x="140.0" y="1453.0" type="line"/>
      <point x="146.0" y="1500.0" type="line"/>
      <point x="818.0" y="1500.0" type="line"/>
      <point x="812.0" y="1453.0" type="line"/>
      <point x="518.0" y="1424.0" type="line"/>
      <point x="573.0" y="777.0" type="line"/>
      <point x="648.0" y="34.0" type="line"/>
      <point x="658.0" y="34.0" type="line"/>
      <point x="1196.0" y="790.0" type="line"/>
      <point x="1643.0" y="1417.0" type="line"/>
      <point x="1376.0" y="1453.0" type="line"/>
      <point x="1382.0" y="1500.0" type="line"/>
      <point x="2038.0" y="1500.0" type="line"/>
      <point x="2032.0" y="1453.0" type="line"/>
      <point x="1774.0" y="1423.0" type="line"/>
      <point x="1293.0" y="770.0" type="line"/>
      <point x="694.0" y="-7.0" type="line"/>
      <point x="557.0" y="-7.0" type="line"/>
      <point x="493.0" y="752.0" type="line"/>
      <point x="416.0" y="1422.0" type="line"/>
    </contour>
  </outline>
</glyph>
<glyph name="X" format="2">
  <advance width="1736"/>
  <unicode hex="0058"/>
  <outline>
    <contour>
      <point x="-114.0" y="0.0" type="line"/>
      <point x="-106.0" y="48.0" type="line"/>
      <point x="108.0" y="73.0" type="line"/>
      <point x="910.0" y="849.0" type="line"/>
      <point x="931.0" y="849.0" type="line"/>
      <point x="1497.0" y="1422.0" type="line"/>
      <point x="1271.0" y="1452.0" type="line"/>
      <point x="1278.0" y="1500.0" type="line"/>
      <point x="1867.0" y="1500.0" type="line"/>
      <point x="1859.0" y="1452.0" type="line"/>
      <point x="1643.0" y="1425.0" type="line"/>
      <point x="958.0" y="757.0" type="line"/>
      <point x="938.0" y="757.0" type="line"/>
      <point x="256.0" y="78.0" type="line"/>
      <point x="494.0" y="48.0" type="line"/>
      <point x="486.0" y="0.0" type="line"/>
    </contour>
    <contour>
      <point x="296.0" y="1453.0" type="line"/>
      <point x="303.0" y="1500.0" type="line"/>
      <point x="892.0" y="1500.0" type="line"/>
      <point x="885.0" y="1452.0" type="line"/>
      <point x="640.0" y="1427.0" type="line"/>
      <point x="937.0" y="823.0" type="line"/>
      <point x="1339.0" y="73.0" type="line"/>
      <point x="1588.0" y="48.0" type="line"/>
      <point x="1578.0" y="0.0" type="line"/>
      <point x="957.0" y="0.0" type="line"/>
      <point x="966.0" y="48.0" type="line"/>
      <point x="1231.0" y="73.0" type="line"/>
      <point x="893.0" y="754.0" type="line"/>
      <point x="538.0" y="1424.0" type="line"/>
    </contour>
  </outline>
</glyph>
<glyph name="Z" format="2">
  <advance width="1432"/>
  <unicode hex="005A"/>
  <outline>
    <contour>
      <point x="-38.0" y="0.0" type="line"/>
      <point x="-58.0" y="52.0" type="line"/>
      <point x="673.0" y="785.0" type="line"/>
      <point x="1284.0" y="1421.0" type="line"/>
      <point x="1270.0" y="1437.0" type="line"/>
      <point x="390.0" y="1437.0" type="line"/>
      <point x="276.0" y="1171.0" type="line"/>
      <point x="204.0" y="1171.0" type="line"/>
      <point x="277.0" y="1500.0" type="line"/>
      <point x="1477.0" y="1500.0" type="line"/>
      <point x="1471.0" y="1449.0" type="line"/>
      <point x="733.0" y="719.0" type="line"/>
      <point x="112.0" y="84.0" type="line"/>
      <point x="126.0" y="68.0" type="line"/>
      <point x="1082.0" y="68.0" type="line"/>
      <point x="1216.0" y="359.0" type="line"/>
      <point x="1301.0" y="359.0" type="line"/>
      <point x="1191.0" y="0.0" type="line"/>
    </contour>
  </outline>
</glyph>
<glyph name="backslash" format="2">
  <advance width="796"/>
  <unicode hex="005C"/>
  <outline>
    <contour>
      <point x="128.0" y="1522.0" type="line"/>
      <point x="208.0" y="1536.0" type="line"/>
      <point x="629.0" y="-137.0" type="line"/>
      <point x="549.0" y="-151.0" type="line"/>
    </contour>
  </outline>
</glyph>
<glyph name="asciicircum" format="2">
  <advance width="1317"/>
  <unicode hex="005E"/>
  <outline>
    <contour>
      <point x="136.0" y="926.0" type="line"/>
      <point x="202.0" y="988.0"/>
      <point x="768.0" y="1524.0"/>
      <point x="768.0" y="1524.0" type="qcurve"/>
      <point x="768.0" y="1524.0"/>
      <point x="1157.0" y="993.0"/>
      <point x="1208.0" y="927.0" type="qcurve"/>
      <point x="1154.0" y="879.0" type="line"/>
      <point x="1051.0" y="1001.0"/>
      <point x="752.0" y="1397.0"/>
      <point x="752.0" y="1397.0" type="qcurve"/>
      <point x="752.0" y="1397.0"/>
      <point x="327.0" y="1001.0"/>
      <point x="183.0" y="874.0" type="qcurve"/>
    </contour>
  </outline>
</glyph>
<glyph name="a" format="2">
  <advance width="1535"/>
  <unicode hex="0061"/>
  <outline>
    <contour>
      <point x="55.0" y="238.0" type="qcurve" smooth="yes"/>
      <point x="47.0" y="551.0"/>
      <point x="593.0" y="988.0"/>
      <point x="940.0" y="988.0" type="qcurve" smooth="yes"/>
      <point x="1051.0" y="988.0"/>
      <point x="1166.0" y="977.0"/>
      <point x="1204.0" y="959.0" type="qcurve"/>
      <point x="1256.0" y="1015.0" type="line"/>
      <point x="1305.0" y="1015.0" type="line"/>
      <point x="1318.0" y="878.0" type="line"/>
      <point x="1197.0" y="367.0" type="line"/>
      <point x="1165.0" y="213.0" type="line"/>
      <point x="1169.0" y="145.0"/>
      <point x="1196.0" y="65.0"/>
      <point x="1239.0" y="14.0" type="qcurve"/>
      <point x="1156.0" y="-14.0" type="line"/>
      <point x="1125.0" y="11.0"/>
      <point x="1092.0" y="143.0"/>
      <point x="1097.0" y="201.0" type="qcurve"/>
      <point x="959.0" y="105.0"/>
      <point x="625.0" y="-10.0"/>
      <point x="430.0" y="-10.0" type="qcurve" smooth="yes"/>
      <point x="254.0" y="-10.0"/>
      <point x="59.0" y="103.0"/>
    </contour>
    <contour>
      <point x="159.0" y="250.0" type="qcurve" smooth="yes"/>
      <point x="161.0" y="124.0"/>
      <point x="314.0" y="45.0"/>
      <point x="438.0" y="45.0" type="qcurve" smooth="yes"/>
      <point x="656.0" y="45.0"/>
      <point x="1091.0" y="225.0"/>
      <point x="1127.0" y="403.0" type="qcurve" smooth="yes"/>
      <point x="1228.0" y="846.0" type="line"/>
      <point x="1222.0" y="876.0"/>
      <point x="1060.0" y="920.0"/>
      <point x="888.0" y="920.0" type="qcurve" smooth="yes"/>
      <point x="588.0" y="920.0"/>
      <point x="155.0" y="486.0"/>
    </contour>
  </outline>
</glyph>
<glyph name="e" format="2">
  <advance width="1317"/>
  <unicode hex="0065"/>
  <outline>
    <contour>
      <point x="14.0" y="485.0" type="qcurve" smooth="yes"/>
      <point x="59.0" y="721.0"/>
      <point x="470.0" y="1016.0"/>
      <point x="728.0" y="1016.0" type="qcurve" smooth="yes"/>
      <point x="876.0" y="1016.0"/>
      <point x="1038.0" y="944.0"/>
      <point x="1079.0" y="887.0" type="qcurve" smooth="yes"/>
      <point x="1116.0" y="829.0"/>
      <point x="1124.0" y="668.0"/>
      <point x="1108.0" y="605.0" type="qcurve"/>
      <point x="1161.0" y="596.0" type="line"/>
      <point x="1133.0" y="550.0" type="line"/>
      <point x="1020.0" y="552.0"/>
      <point x="823.0" y="552.0"/>
      <point x="722.0" y="552.0" type="qcurve" smooth="yes"/>
      <point x="105.0" y="550.0" type="line"/>
      <point x="112.0" y="603.0" type="line"/>
      <point x="1013.0" y="611.0" type="line"/>
      <point x="1027.0" y="642.0"/>
      <point x="1032.0" y="772.0"/>
      <point x="1008.0" y="842.0" type="qcurve" smooth="yes"/>
      <point x="990.0" y="887.0"/>
      <point x="850.0" y="954.0"/>
      <point x="713.0" y="954.0" type="qcurve" smooth="yes"/>
      <point x="497.0" y="954.0"/>
      <point x="151.0" y="691.0"/>
      <point x="111.0" y="511.0" type="qcurve" smooth="yes"/>
      <point x="64.0" y="302.0"/>
      <point x="251.0" y="52.0"/>
      <point x="458.0" y="47.0" type="qcurve" smooth="yes"/>
      <point x="645.0" y="42.0"/>
      <point x="959.0" y="157.0"/>
      <point x="1065.0" y="256.0" type="qcurve"/>
      <point x="1096.0" y="227.0" type="line"/>
      <point x="1114.0" y="209.0" type="line"/>
      <point x="1011.0" y="104.0"/>
      <point x="685.0" y="-17.0"/>
      <point x="470.0" y="-12.0" type="qcurve" smooth="yes"/>
      <point x="176.0" y="-4.0"/>
      <point x="-26.0" y="274.0"/>
    </contour>
  </outline>
</glyph>
<glyph name="j" format="2">
  <advance width="610"/>
  <unicode hex="006A"/>
  <outline>
    <contour>
      <point x="261.0" y="874.0" type="qcurve"/>
      <point x="54.0" y="872.0" type="line"/>
      <point x="56.0" y="915.0" type="line"/>
      <point x="319.0" y="1004.0" type="line"/>
      <point x="362.0" y="1004.0" type="line"/>
      <point x="367.0" y="948.0" type="line"/>
      <point x="338.0" y="849.0" type="line"/>
      <point x="213.0" y="132.0" type="line"/>
      <point x="171.0" y="-127.0"/>
      <point x="29.0" y="-464.0"/>
      <point x="-160.0" y="-464.0" type="qcurve"/>
      <point x="-330.0" y="-425.0" type="line"/>
      <point x="-322.0" y="-388.0" type="line"/>
      <point x="-164.0" y="-390.0" type="line" smooth="yes"/>
      <point x="-21.0" y="-392.0"/>
      <point x="78.0" y="-135.0"/>
      <point x="124.0" y="105.0" type="qcurve" smooth="yes"/>
      <point x="156.0" y="270.0"/>
      <point x="239.0" y="741.0"/>
    </contour>
    <contour>
      <point x="215.0" y="1338.0" type="qcurve" smooth="yes"/>
      <point x="221.0" y="1390.0"/>
      <point x="273.0" y="1444.0"/>
      <point x="319.0" y="1444.0" type="qcurve" smooth="yes"/>
      <point x="360.0" y="1444.0"/>
      <point x="406.0" y="1386.0"/>
      <point x="401.0" y="1338.0" type="qcurve" smooth="yes"/>
      <point x="395.0" y="1288.0"/>
      <point x="343.0" y="1234.0"/>
      <point x="297.0" y="1234.0" type="qcurve" smooth="yes"/>
      <point x="256.0" y="1234.0"/>
      <point x="210.0" y="1292.0"/>
    </contour>
  </outline>
</glyph>
<glyph name="k" format="2">
  <advance width="1440"/>
  <unicode hex="006B"/>
  <outline>
    <contour>
      <point x="183.0" y="-18.0" type="line"/>
      <point x="134.0" y="81.0" type="line"/>
      <point x="238.0" y="527.0" type="line"/>
      <point x="415.0" y="1470.0" type="line"/>
      <point x="182.0" y="1514.0" type="line"/>
      <point x="188.0" y="1554.0" type="line"/>
      <point x="479.0" y="1604.0" type="line"/>
      <point x="512.0" y="1567.0" type="line"/>
      <point x="368.0" y="803.0" type="line"/>
      <point x="428.0" y="887.0"/>
      <point x="650.0" y="1010.0"/>
      <point x="796.0" y="1010.0" type="qcurve" smooth="yes"/>
      <point x="945.0" y="1010.0"/>
      <point x="1137.0" y="863.0"/>
      <point x="1169.0" y="757.0" type="qcurve" smooth="yes"/>
      <point x="1184.0" y="738.0" type="line"/>
      <point x="1173.0" y="716.0" type="line"/>
      <point x="860.0" y="544.0" type="line"/>
      <point x="1091.0" y="93.0" type="line"/>
      <point x="1295.0" y="93.0" type="line"/>
      <point x="1295.0" y="45.0" type="line"/>
      <point x="1078.0" y="-6.0" type="line" smooth="yes"/>
      <point x="1063.0" y="-10.0"/>
      <point x="1034.0" y="8.0"/>
      <point x="983.0" y="115.0" type="qcurve"/>
      <point x="776.0" y="513.0" type="line"/>
      <point x="232.0" y="239.0" type="line"/>
      <point x="205.0" y="301.0" type="line"/>
      <point x="1084.0" y="760.0" type="line"/>
      <point x="1056.0" y="824.0"/>
      <point x="914.0" y="922.0"/>
      <point x="779.0" y="922.0" type="qcurve" smooth="yes"/>
      <point x="666.0" y="922.0"/>
      <point x="405.0" y="794.0"/>
      <point x="344.0" y="676.0" type="qcurve"/>
      <point x="325.0" y="588.0" type="line"/>
      <point x="223.0" y="111.0" type="line"/>
      <point x="303.0" y="-4.0" type="line"/>
    </contour>
  </outline>
</glyph>
<glyph name="m" format="2">
  <advance width="2516"/>
  <unicode hex="006D"/>
  <outline>
    <contour>
      <point x="178.0" y="-18.0" type="line"/>
      <point x="129.0" y="81.0" type="line"/>
      <point x="254.0" y="527.0" type="line"/>
      <point x="315.0" y="875.0" type="line"/>
      <point x="43.0" y="852.0" type="line"/>
      <point x="46.0" y="896.0" type="line"/>
      <point x="330.0" y="999.0" type="line"/>
      <point x="397.0" y="999.0" type="line"/>
      <point x="370.0" y="736.0" type="line"/>
      <point x="343.0" y="588.0" type="line"/>
      <point x="228.0" y="111.0" type="line"/>
      <point x="308.0" y="-4.0" type="line"/>
    </contour>
    <contour>
      <point x="1114.0" y="-20.0" type="line"/>
      <point x="1038.0" y="74.0" type="line"/>
      <point x="1192.0" y="729.0" type="line" smooth="yes"/>
      <point x="1215.0" y="827.0"/>
      <point x="1114.0" y="919.0"/>
      <point x="1037.0" y="919.0" type="qcurve" smooth="yes"/>
      <point x="877.0" y="919.0"/>
      <point x="451.0" y="746.0"/>
      <point x="340.0" y="637.0" type="qcurve"/>
      <point x="324.0" y="683.0" type="line"/>
      <point x="482.0" y="818.0"/>
      <point x="906.0" y="1011.0"/>
      <point x="1088.0" y="1011.0" type="qcurve" smooth="yes"/>
      <point x="1197.0" y="1011.0"/>
      <point x="1300.0" y="858.0"/>
      <point x="1264.0" y="664.0" type="qcurve" smooth="yes"/>
      <point x="1148.0" y="139.0" type="line"/>
      <point x="1200.0" y="8.0" type="line"/>
    </contour>
    <contour>
      <point x="2033.0" y="-16.0" type="line"/>
      <point x="1952.0" y="83.0" type="line"/>
      <point x="2099.0" y="729.0" type="line" smooth="yes"/>
      <point x="2122.0" y="827.0"/>
      <point x="2021.0" y="919.0"/>
      <point x="1944.0" y="919.0" type="qcurve" smooth="yes"/>
      <point x="1784.0" y="919.0"/>
      <point x="1356.0" y="736.0"/>
      <point x="1245.0" y="627.0" type="qcurve"/>
      <point x="1229.0" y="673.0" type="line"/>
      <point x="1387.0" y="808.0"/>
      <point x="1813.0" y="1011.0"/>
      <point x="1995.0" y="1011.0" type="qcurve" smooth="yes"/>
      <point x="2104.0" y="1011.0"/>
      <point x="2207.0" y="858.0"/>
      <point x="2172.0" y="664.0" type="qcurve" smooth="yes"/>
      <point x="2048.0" y="79.0" type="line"/>
      <point x="2316.0" y="100.0" type="line"/>
      <point x="2316.0" y="50.0" type="line"/>
    </contour>
  </outline>
</glyph>
<glyph name="n" format="2">
  <advance width="1643"/>
  <unicode hex="006E"/>
  <outline>
    <contour>
      <point x="178.0" y="-18.0" type="line"/>
      <point x="129.0" y="81.0" type="line"/>
      <point x="254.0" y="527.0" type="line"/>
      <point x="315.0" y="875.0" type="line"/>
      <point x="43.0" y="852.0" type="line"/>
      <point x="46.0" y="896.0" type="line"/>
      <point x="330.0" y="1000.0" type="line"/>
      <point x="397.0" y="1000.0" type="line"/>
      <point x="370.0" y="736.0" type="line"/>
      <point x="343.0" y="588.0" type="line"/>
      <point x="228.0" y="115.0" type="line"/>
      <point x="308.0" y="0.0" type="line"/>
    </contour>
    <contour>
      <point x="1157.0" y="-27.0" type="line"/>
      <point x="1076.0" y="72.0" type="line"/>
      <point x="1226.0" y="729.0" type="line" smooth="yes"/>
      <point x="1249.0" y="827.0"/>
      <point x="1154.0" y="919.0"/>
      <point x="1077.0" y="919.0" type="qcurve" smooth="yes"/>
      <point x="917.0" y="919.0"/>
      <point x="451.0" y="738.0"/>
      <point x="340.0" y="637.0" type="qcurve"/>
      <point x="324.0" y="683.0" type="line"/>
      <point x="483.0" y="815.0"/>
      <point x="946.0" y="1011.0"/>
      <point x="1128.0" y="1011.0" type="qcurve" smooth="yes"/>
      <point x="1237.0" y="1011.0"/>
      <point x="1338.0" y="857.0"/>
      <point x="1299.0" y="664.0" type="qcurve" smooth="yes"/>
      <point x="1175.0" y="79.0" type="line"/>
      <point x="1443.0" y="100.0" type="line"/>
      <point x="1443.0" y="50.0" type="line"/>
    </contour>
  </outline>
</glyph>
<glyph name="r" format="2">
  <advance width="1129"/>
  <unicode hex="0072"/>
  <outline>
    <contour>
      <point x="174.0" y="-14.0" type="line"/>
      <point x="133.0" y="75.0" type="line"/>
      <point x="238.0" y="527.0" type="line"/>
      <point x="312.0" y="875.0" type="line"/>
      <point x="50.0" y="852.0" type="line"/>
      <point x="53.0" y="896.0" type="line"/>
      <point x="348.0" y="1000.0" type="line"/>
      <point x="394.0" y="1000.0" type="line"/>
      <point x="364.0" y="736.0" type="line"/>
      <point x="337.0" y="588.0" type="line"/>
      <point x="212.0" y="92.0" type="line"/>
      <point x="480.0" y="112.0" type="line"/>
      <point x="480.0" y="66.0" type="line"/>
    </contour>
    <contour>
      <point x="878.0" y="704.0" type="line"/>
      <point x="896.0" y="931.0" type="line"/>
      <point x="750.0" y="931.0"/>
      <point x="410.0" y="769.0"/>
      <point x="334.0" y="670.0" type="qcurve"/>
      <point x="325.0" y="727.0" type="line"/>
      <point x="388.0" y="814.0"/>
      <point x="751.0" y="1008.0"/>
      <point x="881.0" y="1008.0" type="qcurve" smooth="yes"/>
      <point x="971.0" y="1008.0"/>
      <point x="1011.0" y="941.0"/>
      <point x="1011.0" y="893.0" type="qcurve" smooth="yes"/>
      <point x="1011.0" y="785.0"/>
      <point x="952.0" y="704.0"/>
      <point x="916.0" y="704.0" type="qcurve" smooth="yes"/>
    </contour>
  </outline>
</glyph>
<glyph name="y" format="2">
  <advance width="1342"/>
  <unicode hex="0079"/>
  <outline>
    <contour>
      <point x="-370.0" y="-425.0" type="line"/>
      <point x="-365.0" y="-389.0" type="line"/>
      <point x="-159.0" y="-387.0" type="line" smooth="yes"/>
      <point x="22.0" y="-385.0"/>
      <point x="326.0" y="-103.0"/>
      <point x="395.0" y="-28.0" type="qcurve" smooth="yes"/>
      <point x="419.0" y="0.0" type="line"/>
      <point x="372.0" y="0.0" type="line"/>
      <point x="319.38599999999997" y="293.373"/>
      <point x="240.0" y="706.0"/>
      <point x="198.0" y="881.0" type="qcurve"/>
      <point x="4.0" y="878.0" type="line"/>
      <point x="6.0" y="923.0" type="line"/>
      <point x="218.0" y="1001.0" type="line"/>
      <point x="258.0" y="1001.0" type="line"/>
      <point x="292.0" y="925.0" type="line"/>
      <point x="466.0" y="15.0" type="line"/>
      <point x="689.0" y="213.0"/>
      <point x="1117.0" y="711.0"/>
      <point x="1117.0" y="807.0" type="qcurve" smooth="yes"/>
      <point x="1117.0" y="848.0"/>
      <point x="1052.0" y="914.0"/>
      <point x="1052.0" y="967.0" type="qcurve" smooth="yes"/>
      <point x="1052.0" y="1001.0"/>
      <point x="1106.0" y="1054.0"/>
      <point x="1161.0" y="1054.0" type="qcurve" smooth="yes"/>
      <point x="1209.0" y="1054.0"/>
      <point x="1255.0" y="1004.0"/>
      <point x="1255.0" y="918.0" type="qcurve" smooth="yes"/>
      <point x="1255.0" y="770.0"/>
      <point x="905.0" y="365.0"/>
      <point x="549.0" y="-4.0" type="qcurve" smooth="yes"/>
      <point x="494.0" y="-57.0" type="line" smooth="yes"/>
      <point x="311.0" y="-234.0"/>
      <point x="13.0" y="-464.0"/>
      <point x="-147.0" y="-464.0" type="qcurve"/>
    </contour>
  </outline>
</glyph>
<glyph name="dieresis" format="2">
  <advance width="1024"/>
  <unicode hex="00A8"/>
  <outline>
    <contour>
      <point x="675.0" y="1229.0" type="qcurve" smooth="yes"/>
      <point x="675.0" y="1271.0"/>
      <point x="722.0" y="1319.0"/>
      <point x="766.0" y="1319.0" type="qcurve" smooth="yes"/>
      <point x="808.0" y="1319.0"/>
      <point x="859.0" y="1269.0"/>
      <point x="859.0" y="1229.0" type="qcurve" smooth="yes"/>
      <point x="859.0" y="1186.0"/>
      <point x="811.0" y="1139.0"/>
      <point x="766.0" y="1139.0" type="qcurve" smooth="yes"/>
      <point x="724.0" y="1139.0"/>
      <point x="675.0" y="1188.0"/>
    </contour>
    <contour>
      <point x="341.0" y="1229.0" type="qcurve" smooth="yes"/>
      <point x="341.0" y="1271.0"/>
      <point x="390.0" y="1319.0"/>
      <point x="434.0" y="1319.0" type="qcurve" smooth="yes"/>
      <point x="476.0" y="1319.0"/>
      <point x="526.0" y="1269.0"/>
      <point x="526.0" y="1229.0" type="qcurve" smooth="yes"/>
      <point x="526.0" y="1186.0"/>
      <point x="479.0" y="1139.0"/>
      <point x="434.0" y="1139.0" type="qcurve" smooth="yes"/>
      <point x="392.0" y="1139.0"/>
      <point x="341.0" y="1188.0"/>
    </contour>
  </outline>
</glyph>
<glyph name="plusminus" format="2">
  <advance width="1238"/>
  <unicode hex="00B1"/>
  <outline>
    <contour>
      <point x="16.0" y="665.0" type="line"/>
      <point x="16.0" y="719.0" type="line"/>
      <point x="1061.0" y="719.0" type="line"/>
      <point x="1061.0" y="665.0" type="line"/>
    </contour>
    <contour>
      <point x="509.0" y="232.0" type="line"/>
      <point x="509.0" y="1114.0" type="line"/>
      <point x="568.0" y="1114.0" type="line"/>
      <point x="568.0" y="232.0" type="line"/>
    </contour>
    <contour>
      <point x="16.0" y="26.0" type="line"/>
      <point x="16.0" y="87.0" type="line"/>
      <point x="1061.0" y="87.0" type="line"/>
      <point x="1061.0" y="26.0" type="line"/>
    </contour>
  </outline>
</glyph>
<glyph name="twosuperior" format="2">
  <advance width="826"/>
  <unicode hex="00B2"/>
  <outline>
    <contour>
      <point x="41.0" y="713.0" type="qcurve"/>
      <point x="9.0" y="747.0" type="line"/>
      <point x="105.0" y="786.0" type="line"/>
      <point x="424.0" y="996.0"/>
      <point x="639.0" y="1226.0"/>
      <point x="634.0" y="1333.0" type="qcurve" smooth="yes"/>
      <point x="631.0" y="1392.0"/>
      <point x="541.0" y="1463.0"/>
      <point x="452.0" y="1463.0" type="qcurve" smooth="yes"/>
      <point x="353.0" y="1463.0"/>
      <point x="213.0" y="1404.0"/>
      <point x="163.0" y="1369.0" type="qcurve"/>
      <point x="122.0" y="1407.0" type="line"/>
      <point x="172.0" y="1448.0"/>
      <point x="346.0" y="1524.0"/>
      <point x="463.0" y="1524.0" type="qcurve" smooth="yes"/>
      <point x="584.0" y="1524.0"/>
      <point x="726.0" y="1424.0"/>
      <point x="730.0" y="1340.0" type="qcurve" smooth="yes"/>
      <point x="738.0" y="1191.0"/>
      <point x="471.0" y="944.0"/>
      <point x="231.0" y="802.0" type="qcurve"/>
      <point x="235.0" y="797.0" type="line"/>
      <point x="312.0" y="807.0"/>
      <point x="557.0" y="790.0"/>
      <point x="657.0" y="767.0" type="qcurve"/>
      <point x="649.0" y="695.0" type="line"/>
      <point x="506.0" y="726.0"/>
      <point x="174.0" y="749.0"/>
    </contour>
  </outline>
</glyph>
<glyph name="cedilla" format="2">
  <advance width="1024"/>
  <unicode hex="00B8"/>
  <outline>
    <contour>
      <point x="516.0" y="-4.0" type="line"/>
      <point x="385.0" y="-156.0" type="line"/>
      <point x="402.0" y="-150.0"/>
      <point x="458.0" y="-143.0"/>
      <point x="519.0" y="-143.0" type="qcurve" smooth="yes"/>
      <point x="613.0" y="-143.0"/>
      <point x="724.0" y="-219.0"/>
      <point x="725.0" y="-309.0" type="qcurve" smooth="yes"/>
      <point x="726.0" y="-397.0"/>
      <point x="528.0" y="-497.0"/>
      <point x="385.0" y="-497.0" type="qcurve" smooth="yes"/>
      <point x="310.0" y="-497.0"/>
      <point x="161.0" y="-451.0"/>
      <point x="109.0" y="-411.0" type="qcurve"/>
      <point x="145.0" y="-360.0" type="line"/>
      <point x="197.0" y="-401.0"/>
      <point x="334.0" y="-442.0"/>
      <point x="407.0" y="-442.0" type="qcurve" smooth="yes"/>
      <point x="514.0" y="-442.0"/>
      <point x="636.0" y="-372.0"/>
      <point x="635.0" y="-317.0" type="qcurve" smooth="yes"/>
      <point x="634.0" y="-262.0"/>
      <point x="538.0" y="-206.0"/>
      <point x="470.0" y="-206.0" type="qcurve" smooth="yes"/>
      <point x="435.0" y="-206.0"/>
      <point x="333.0" y="-219.0"/>
      <point x="315.0" y="-225.0" type="qcurve"/>
      <point x="291.0" y="-180.0" type="line"/>
      <point x="463.0" y="27.0" type="line"/>
    </contour>
  </outline>
</glyph>
<glyph name="ordmasculine" format="2">
  <advance width="1279"/>
  <unicode hex="00BA"/>
  <outline>
    <contour>
      <point x="95.0" y="1114.0" type="qcurve" smooth="yes"/>
      <point x="123.0" y="1286.0"/>
      <point x="445.0" y="1514.0"/>
      <point x="670.0" y="1498.0" type="qcurve" smooth="yes"/>
      <point x="885.0" y="1484.0"/>
      <point x="1107.0" y="1246.0"/>
      <point x="1087.0" y="1064.0" type="qcurve" smooth="yes"/>
      <point x="1068.0" y="891.0"/>
      <point x="743.0" y="659.0"/>
      <point x="517.0" y="674.0" type="qcurve" smooth="yes"/>
      <point x="300.0" y="687.0"/>
      <point x="64.0" y="929.0"/>
    </contour>
    <contour>
      <point x="195.0" y="1117.0" type="qcurve" smooth="yes"/>
      <point x="165.0" y="955.0"/>
      <point x="354.0" y="745.0"/>
      <point x="532.0" y="734.0" type="qcurve" smooth="yes"/>
      <point x="720.0" y="724.0"/>
      <point x="978.0" y="922.0"/>
      <point x="995.0" y="1077.0" type="qcurve" smooth="yes"/>
      <point x="1009.0" y="1205.0"/>
      <point x="839.0" y="1431.0"/>
      <point x="659.0" y="1439.0" type="qcurve" smooth="yes"/>
      <point x="462.0" y="1446.0"/>
      <point x="218.0" y="1258.0"/>
    </contour>
  </outline>
</glyph>
<glyph name="ae" format="2">
  <advance width="2479"/>
  <unicode hex="00E6"/>
  <outline>
    <contour>
      <point x="159.0" y="250.0" type="qcurve" smooth="yes"/>
      <point x="161.0" y="124.0"/>
      <point x="314.0" y="45.0"/>
      <point x="438.0" y="45.0" type="qcurve" smooth="yes"/>
      <point x="656.0" y="45.0"/>
      <point x="1110.0" y="188.0"/>
      <point x="1145.0" y="403.0" type="qcurve" smooth="yes"/>
      <point x="1228.0" y="846.0" type="line"/>
      <point x="1222.0" y="876.0"/>
      <point x="1060.0" y="920.0"/>
      <point x="888.0" y="920.0" type="qcurve" smooth="yes"/>
      <point x="588.0" y="920.0"/>
      <point x="155.0" y="486.0"/>
    </contour>
    <contour>
      <point x="55.0" y="238.0" type="qcurve" smooth="yes"/>
      <point x="47.0" y="551.0"/>
      <point x="593.0" y="988.0"/>
      <point x="940.0" y="988.0" type="qcurve" smooth="yes"/>
      <point x="1051.0" y="988.0"/>
      <point x="1176.0" y="971.0"/>
      <point x="1214.0" y="953.0" type="qcurve"/>
      <point x="1266.0" y="1015.0" type="line"/>
      <point x="1315.0" y="1015.0" type="line"/>
      <point x="1328.0" y="790.0" type="line"/>
      <point x="1443.0" y="891.0"/>
      <point x="1734.0" y="1003.0"/>
      <point x="1876.0" y="1003.0" type="qcurve" smooth="yes"/>
      <point x="2041.0" y="1003.0"/>
      <point x="2181.0" y="942.0"/>
      <point x="2228.0" y="872.0" type="qcurve" smooth="yes"/>
      <point x="2268.0" y="814.0"/>
      <point x="2276.0" y="668.0"/>
      <point x="2260.0" y="605.0" type="qcurve"/>
      <point x="2313.0" y="596.0" type="line"/>
      <point x="2285.0" y="550.0" type="line"/>
      <point x="2172.0" y="552.0"/>
      <point x="1975.0" y="552.0"/>
      <point x="1874.0" y="552.0" type="qcurve" smooth="yes"/>
      <point x="1257.0" y="550.0" type="line"/>
      <point x="1264.0" y="603.0" type="line"/>
      <point x="2165.0" y="611.0" type="line"/>
      <point x="2179.0" y="642.0"/>
      <point x="2178.0" y="765.0"/>
      <point x="2156.0" y="829.0" type="qcurve" smooth="yes"/>
      <point x="2139.0" y="874.0"/>
      <point x="1998.0" y="941.0"/>
      <point x="1861.0" y="941.0" type="qcurve" smooth="yes"/>
      <point x="1645.0" y="941.0"/>
      <point x="1303.0" y="691.0"/>
      <point x="1263.0" y="511.0" type="qcurve" smooth="yes"/>
      <point x="1216.0" y="302.0"/>
      <point x="1403.0" y="60.0"/>
      <point x="1610.0" y="55.0" type="qcurve" smooth="yes"/>
      <point x="1797.0" y="50.0"/>
      <point x="2111.0" y="165.0"/>
      <point x="2217.0" y="264.0" type="qcurve"/>
      <point x="2248.0" y="235.0" type="line"/>
      <point x="2266.0" y="217.0" type="line"/>
      <point x="2163.0" y="112.0"/>
      <point x="1827.0" y="-16.0"/>
      <point x="1612.0" y="-4.0" type="qcurve" smooth="yes"/>
      <point x="1423.0" y="6.0"/>
      <point x="1219.0" y="121.0"/>
      <point x="1174.0" y="254.0" type="qcurve"/>
      <point x="994.0" y="129.0"/>
      <point x="609.0" y="-10.0"/>
      <point x="430.0" y="-10.0" type="qcurve" smooth="yes"/>
      <point x="254.0" y="-10.0"/>
      <point x="59.0" y="103.0"/>
    </contour>
  </outline>
</glyph>
<glyph name="oe" format="2">
  <advance width="2576"/>
  <unicode hex="0153"/>
  <outline>
    <contour>
      <point x="10.0" y="533.0" type="qcurve" smooth="yes"/>
      <point x="52.0" y="762.0"/>
      <point x="479.0" y="1029.0"/>
      <point x="785.0" y="1014.0" type="qcurve" smooth="yes"/>
      <point x="1012.0" y="1002.0"/>
      <point x="1297.0" y="817.0"/>
      <point x="1342.0" y="664.0" type="qcurve"/>
      <point x="1448.0" y="826.0"/>
      <point x="1800.0" y="1003.0"/>
      <point x="1983.0" y="1003.0" type="qcurve" smooth="yes"/>
      <point x="2148.0" y="1003.0"/>
      <point x="2288.0" y="942.0"/>
      <point x="2335.0" y="872.0" type="qcurve" smooth="yes"/>
      <point x="2375.0" y="814.0"/>
      <point x="2383.0" y="668.0"/>
      <point x="2367.0" y="605.0" type="qcurve"/>
      <point x="2420.0" y="596.0" type="line"/>
      <point x="2392.0" y="550.0" type="line"/>
      <point x="2279.0" y="552.0"/>
      <point x="2082.0" y="552.0"/>
      <point x="1981.0" y="552.0" type="qcurve" smooth="yes"/>
      <point x="1364.0" y="550.0" type="line"/>
      <point x="1371.0" y="603.0" type="line"/>
      <point x="2272.0" y="611.0" type="line"/>
      <point x="2286.0" y="642.0"/>
      <point x="2285.0" y="765.0"/>
      <point x="2263.0" y="829.0" type="qcurve" smooth="yes"/>
      <point x="2246.0" y="874.0"/>
      <point x="2105.0" y="941.0"/>
      <point x="1968.0" y="941.0" type="qcurve" smooth="yes"/>
      <point x="1752.0" y="941.0"/>
      <point x="1410.0" y="691.0"/>
      <point x="1370.0" y="511.0" type="qcurve" smooth="yes"/>
      <point x="1323.0" y="302.0"/>
      <point x="1510.0" y="60.0"/>
      <point x="1717.0" y="55.0" type="qcurve" smooth="yes"/>
      <point x="1904.0" y="50.0"/>
      <point x="2218.0" y="165.0"/>
      <point x="2324.0" y="264.0" type="qcurve"/>
      <point x="2355.0" y="235.0" type="line"/>
      <point x="2373.0" y="217.0" type="line"/>
      <point x="2270.0" y="112.0"/>
      <point x="1944.0" y="-9.0"/>
      <point x="1729.0" y="-4.0" type="qcurve" smooth="yes"/>
      <point x="1530.0" y="2.0"/>
      <point x="1298.0" y="153.0"/>
      <point x="1267.0" y="272.0" type="qcurve"/>
      <point x="1165.0" y="136.0"/>
      <point x="812.0" y="-28.0"/>
      <point x="593.0" y="-16.0" type="qcurve" smooth="yes"/>
      <point x="287.0" y="-1.0"/>
      <point x="-31.0" y="302.0"/>
    </contour>
    <contour>
      <point x="122.0" y="556.0" type="qcurve" smooth="yes"/>
      <point x="77.0" y="334.0"/>
      <point x="348.0" y="62.0"/>
      <point x="603.0" y="51.0" type="qcurve" smooth="yes"/>
      <point x="881.0" y="38.0"/>
      <point x="1235.0" y="309.0"/>
      <point x="1262.0" y="478.0" type="qcurve" smooth="yes"/>
      <point x="1298.0" y="684.0"/>
      <point x="1036.0" y="940.0"/>
      <point x="776.0" y="954.0" type="qcurve" smooth="yes"/>
      <point x="522.0" y="967.0"/>
      <point x="163.0" y="762.0"/>
    </contour>
  </outline>
</glyph>
<glyph name="Schwa" format="2">
  <advance width="1703"/>
  <unicode hex="018F"/>
  <outline>
    <contour>
      <point x="196.0" y="1273.0" type="line"/>
      <point x="348.0" y="1435.0"/>
      <point x="768.0" y="1562.0"/>
      <point x="1012.0" y="1543.0" type="qcurve" smooth="yes"/>
      <point x="1353.0" y="1517.0"/>
      <point x="1646.0" y="1040.0"/>
      <point x="1554.0" y="688.0" type="qcurve" smooth="yes"/>
      <point x="1470.0" y="373.0"/>
      <point x="924.0" y="-15.0"/>
      <point x="509.0" y="-9.0" type="qcurve" smooth="yes"/>
      <point x="302.0" y="-7.0"/>
      <point x="39.0" y="191.0"/>
      <point x="39.0" y="337.0" type="qcurve" smooth="yes"/>
      <point x="39.0" y="369.0"/>
      <point x="44.0" y="427.0"/>
      <point x="52.0" y="471.0" type="qcurve"/>
      <point x="99.0" y="498.0" type="line"/>
      <point x="1380.0" y="498.0" type="line"/>
      <point x="1408.0" y="546.0"/>
      <point x="1443.0" y="623.0"/>
      <point x="1459.0" y="685.0" type="qcurve" smooth="yes"/>
      <point x="1549.0" y="1021.0"/>
      <point x="1279.0" y="1439.0"/>
      <point x="973.0" y="1470.0" type="qcurve" smooth="yes"/>
      <point x="734.0" y="1493.0"/>
      <point x="372.0" y="1341.0"/>
      <point x="255.0" y="1216.0" type="qcurve"/>
      <point x="223.0" y="1230.0" type="line"/>
    </contour>
    <contour>
      <point x="546.0" y="44.0" type="qcurve" smooth="yes"/>
      <point x="754.0" y="31.0"/>
      <point x="1179.0" y="257.0"/>
      <point x="1318.0" y="428.0" type="qcurve"/>
      <point x="574.0" y="434.0" type="line"/>
      <point x="213.0" y="428.0" type="line" smooth="yes"/>
      <point x="125.0" y="426.0"/>
      <point x="94.0" y="338.0"/>
      <point x="121.0" y="276.0" type="qcurve" smooth="yes"/>
      <point x="150.0" y="190.0"/>
      <point x="343.0" y="57.0"/>
    </contour>
  </outline>
</glyph>
<glyph name="franc" format="2">
  <advance width="1434"/>
  <unicode hex="20A3"/>
  <outline>
    <contour>
      <point x="30.0" y="361.0" type="line"/>
      <point x="44.0" y="424.0" type="line"/>
      <point x="787.0" y="424.0" type="line"/>
      <point x="772.0" y="361.0" type="line"/>
    </contour>
    <contour>
      <point x="-79.0" y="0.0" type="line"/>
      <point x="-69.0" y="48.0" type="line"/>
      <point x="150.0" y="78.0" type="line"/>
      <point x="303.0" y="806.0" type="line"/>
      <point x="412.0" y="1427.0" type="line"/>
      <point x="172.0" y="1453.0" type="line"/>
      <point x="174.0" y="1500.0" type="line"/>
      <point x="1393.0" y="1500.0" type="line"/>
      <point x="1361.0" y="1175.0" type="line"/>
      <point x="1292.0" y="1175.0" type="line"/>
      <point x="1278.0" y="1432.0" type="line"/>
      <point x="545.0" y="1432.0" type="line"/>
      <point x="510.0" y="1412.0" type="line"/>
      <point x="390.0" y="794.0" type="line"/>
      <point x="252.0" y="78.0" type="line"/>
      <point x="471.0" y="48.0" type="line"/>
      <point x="463.0" y="0.0" type="line"/>
    </contour>
    <contour>
      <point x="326.0" y="711.0" type="line"/>
      <point x="345.0" y="767.0" type="line"/>
      <point x="1068.0" y="772.0" type="line"/>
      <point x="1141.0" y="941.0" type="line"/>
      <point x="1195.0" y="941.0" type="line"/>
      <point x="1110.0" y="511.0" type="line"/>
      <point x="1060.0" y="511.0" type="line"/>
      <point x="1056.0" y="703.0" type="line"/>
    </contour>
  </outline>
</glyph>
<glyph name="numero" format="2">
  <advance width="2502"/>
  <unicode hex="2116"/>
  <outline>
    <contour>
      <point x="1568.0" y="418.0" type="qcurve" smooth="yes"/>
      <point x="1575.0" y="451.0"/>
      <point x="1585.0" y="452.0"/>
      <point x="1909.0" y="450.0" type="qcurve" smooth="yes"/>
      <point x="2245.0" y="448.0"/>
      <point x="2257.0" y="447.0"/>
      <point x="2246.0" y="411.0" type="qcurve" smooth="yes"/>
      <point x="2237.0" y="382.0"/>
      <point x="2227.0" y="382.0"/>
      <point x="1899.0" y="382.0" type="qcurve" smooth="yes"/>
      <point x="1570.0" y="382.0"/>
      <point x="1561.0" y="381.0"/>
    </contour>
    <contour>
      <point x="-17.0" y="0.0" type="line"/>
      <point x="-7.0" y="48.0" type="line"/>
      <point x="167.0" y="73.0" type="line"/>
      <point x="285.0" y="753.0" type="line"/>
      <point x="394.0" y="1427.0" type="line"/>
      <point x="211.0" y="1453.0" type="line"/>
      <point x="212.0" y="1500.0" type="line"/>
      <point x="545.0" y="1500.0" type="line"/>
      <point x="843.0" y="807.0" type="line"/>
      <point x="1100.0" y="124.0" type="line"/>
      <point x="1222.0" y="751.0" type="line"/>
      <point x="1329.0" y="1427.0" type="line"/>
      <point x="1127.0" y="1453.0" type="line"/>
      <point x="1131.0" y="1500.0" type="line"/>
      <point x="1608.0" y="1500.0" type="line"/>
      <point x="1604.0" y="1453.0" type="line"/>
      <point x="1422.0" y="1427.0" type="line"/>
      <point x="1303.0" y="753.0" type="line"/>
      <point x="1179.0" y="-4.0" type="line"/>
      <point x="1069.0" y="-4.0" type="line"/>
      <point x="745.0" y="787.0" type="line"/>
      <point x="485.0" y="1432.0" type="line"/>
      <point x="367.0" y="755.0" type="line"/>
      <point x="254.0" y="73.0" type="line"/>
      <point x="471.0" y="48.0" type="line"/>
      <point x="464.0" y="0.0" type="line"/>
    </contour>
    <contour>
      <point x="1614.0" y="1040.0" type="qcurve" smooth="yes"/>
      <point x="1642.0" y="1232.0"/>
      <point x="1892.0" y="1511.0"/>
      <point x="2052.0" y="1511.0" type="qcurve" smooth="yes"/>
      <point x="2214.0" y="1511.0"/>
      <point x="2372.0" y="1253.0"/>
      <point x="2348.0" y="1046.0" type="qcurve" smooth="yes"/>
      <point x="2322.0" y="840.0"/>
      <point x="2078.0" y="570.0"/>
      <point x="1918.0" y="570.0" type="qcurve" smooth="yes"/>
      <point x="1756.0" y="570.0"/>
      <point x="1583.0" y="835.0"/>
    </contour>
    <contour>
      <point x="1688.0" y="1042.0" type="qcurve" smooth="yes"/>
      <point x="1657.0" y="851.0"/>
      <point x="1800.0" y="627.0"/>
      <point x="1918.0" y="627.0" type="qcurve" smooth="yes"/>
      <point x="2036.0" y="627.0"/>
      <point x="2244.0" y="857.0"/>
      <point x="2274.0" y="1047.0" type="qcurve" smooth="yes"/>
      <point x="2299.0" y="1221.0"/>
      <point x="2167.0" y="1454.0"/>
      <point x="2043.0" y="1454.0" type="qcurve" smooth="yes"/>
      <point x="1927.0" y="1454.0"/>
      <point x="1717.0" y="1221.0"/>
    </contour>
  </outline>
</glyph>
<glyph name="minus" format="2">
  <advance width="1238"/>
  <unicode hex="2212"/>
  <outline>
    <contour>
      <point x="16.0" y="605.0" type="line"/>
      <point x="16.0" y="659.0" type="line"/>
      <point x="1061.0" y="659.0" type="line"/>
      <point x="1061.0" y="605.0" type="line"/>
    </contour>
  </outline>
</glyph>
<glyph name="brevecomb.case" format="2">
  <advance width="1024"/>
  <outline>
    <contour>
      <point x="964.0" y="1912.0" type="qcurve"/>
      <point x="1007.0" y="1892.0" type="line"/>
      <point x="959.0" y="1787.0"/>
      <point x="717.0" y="1602.0"/>
      <point x="594.0" y="1602.0" type="qcurve" smooth="yes"/>
      <point x="453.0" y="1602.0"/>
      <point x="305.0" y="1753.0"/>
      <point x="315.0" y="1893.0" type="qcurve"/>
      <point x="350.0" y="1905.0" type="line"/>
      <point x="369.0" y="1806.0"/>
      <point x="495.0" y="1701.0"/>
      <point x="613.0" y="1701.0" type="qcurve" smooth="yes"/>
      <point x="724.0" y="1701.0"/>
      <point x="913.0" y="1822.0"/>
    </contour>
  </outline>
</glyph>
<glyph name="breveinvertedcomb" format="2">
  <advance width="1024"/>
  <outline>
    <contour>
      <point x="221.0" y="1108.0" type="qcurve"/>
      <point x="160.0" y="1135.0" type="line"/>
      <point x="215.0" y="1253.0"/>
      <point x="444.0" y="1415.0"/>
      <point x="593.0" y="1415.0" type="qcurve" smooth="yes"/>
      <point x="741.0" y="1415.0"/>
      <point x="908.0" y="1235.0"/>
      <point x="917.0" y="1098.0" type="qcurve"/>
      <point x="849.0" y="1082.0" type="line"/>
      <point x="829.0" y="1181.0"/>
      <point x="696.0" y="1316.0"/>
      <point x="574.0" y="1316.0" type="qcurve" smooth="yes"/>
      <point x="467.0" y="1316.0"/>
      <point x="288.0" y="1221.0"/>
    </contour>
  </outline>
</glyph>
<glyph name="caroncomb.alt" format="2">
  <advance width="1024"/>
  <outline>
    <contour>
      <point x="588.0" y="1068.0" type="line"/>
      <point x="705.0" y="1452.0" type="line" smooth="yes"/>
      <point x="721.0" y="1507.0"/>
      <point x="764.0" y="1546.0"/>
      <point x="797.0" y="1546.0" type="qcurve" smooth="yes"/>
      <point x="816.0" y="1546.0"/>
      <point x="850.3535533905933" y="1521.303300858899"/>
      <point x="849.0" y="1501.0" type="qcurve" smooth="yes"/>
      <point x="849.0" y="1485.0"/>
      <point x="843.0" y="1442.0"/>
      <point x="830.0" y="1419.0" type="qcurve" smooth="yes"/>
      <point x="631.0" y="1054.0" type="line"/>
    </contour>
  </outline>
</glyph>
<glyph name="caroncomb.case" format="2">
  <advance width="1024"/>
  <outline>
    <contour>
      <point x="600.0" y="1593.0" type="qcurve" smooth="yes"/>
      <point x="573.0" y="1593.0"/>
      <point x="530.0" y="1629.0"/>
      <point x="505.0" y="1666.0" type="qcurve" smooth="yes"/>
      <point x="304.0" y="1916.0" type="line"/>
      <point x="347.0" y="1942.0" type="line"/>
      <point x="622.0" y="1709.0" type="line"/>
      <point x="1017.0" y="1942.0" type="line"/>
      <point x="1039.0" y="1902.0" type="line"/>
      <point x="729.0" y="1666.0" type="line" smooth="yes"/>
      <point x="673.0" y="1623.0"/>
      <point x="628.0" y="1593.0"/>
    </contour>
  </outline>
</glyph>
<glyph name="diagonalbaro" format="2">
  <advance width="603"/>
  <outline>
    <contour>
      <point x="-190.0" y="-136.0" type="line"/>
      <point x="-64.0" y="70.0" type="line"/>
      <point x="-56.0" y="67.0" type="line"/>
      <point x="258.0" y="569.0" type="line"/>
      <point x="292.0" y="501.0" type="line"/>
      <point x="0.0" y="40.0" type="line"/>
      <point x="9.0" y="36.0" type="line"/>
      <point x="-106.0" y="-139.0" type="line"/>
    </contour>
    <contour>
      <point x="578.0" y="1090.0" type="line"/>
      <point x="669.0" y="1090.0" type="line"/>
      <point x="560.0" y="909.0" type="line"/>
      <point x="550.0" y="913.0" type="line"/>
      <point x="292.0" y="501.0" type="line"/>
      <point x="258.0" y="569.0" type="line"/>
      <point x="495.0" y="940.0" type="line"/>
      <point x="486.0" y="945.0" type="line"/>
    </contour>
  </outline>
</glyph>
<glyph name="dotbelowcomb" format="2">
  <advance width="1024"/>
  <outline>
    <contour>
      <point x="319.0" y="-253.0" type="qcurve" smooth="yes"/>
      <point x="319.0" y="-206.0"/>
      <point x="370.0" y="-156.0"/>
      <point x="418.0" y="-156.0" type="qcurve" smooth="yes"/>
      <point x="463.0" y="-156.0"/>
      <point x="517.0" y="-210.0"/>
      <point x="517.0" y="-253.0" type="qcurve" smooth="yes"/>
      <point x="517.0" y="-298.0"/>
      <point x="466.0" y="-348.0"/>
      <point x="418.0" y="-348.0" type="qcurve" smooth="yes"/>
      <point x="375.0" y="-348.0"/>
      <point x="319.0" y="-295.0"/>
    </contour>
  </outline>
</glyph>
<glyph name="eight.tab" format="2">
  <advance width="1500"/>
  <outline>
    <contour>
      <point x="53.0" y="321.0" type="qcurve" smooth="yes"/>
      <point x="44.0" y="489.0"/>
      <point x="382.0" y="767.0"/>
      <point x="665.0" y="865.0" type="qcurve"/>
      <point x="736.0" y="822.0" type="line"/>
      <point x="485.0" y="736.0"/>
      <point x="152.0" y="491.0"/>
      <point x="159.0" y="332.0" type="qcurve" smooth="yes"/>
      <point x="165.0" y="212.0"/>
      <point x="389.0" y="50.0"/>
      <point x="588.0" y="50.0" type="qcurve" smooth="yes"/>
      <point x="825.0" y="50.0"/>
      <point x="1128.0" y="255.0"/>
      <point x="1128.0" y="417.0" type="qcurve" smooth="yes"/>
      <point x="1128.0" y="553.0"/>
      <point x="846.0" y="770.0"/>
      <point x="707.0" y="835.0" type="qcurve" smooth="yes"/>
      <point x="553.0" y="902.0"/>
      <point x="341.0" y="1055.0"/>
      <point x="333.0" y="1185.0" type="qcurve" smooth="yes"/>
      <point x="325.0" y="1328.0"/>
      <point x="614.0" y="1530.0"/>
      <point x="877.0" y="1530.0" type="qcurve" smooth="yes"/>
      <point x="1056.0" y="1530.0"/>
      <point x="1271.0" y="1378.0"/>
      <point x="1272.0" y="1255.0" type="qcurve" smooth="yes"/>
      <point x="1273.0" y="1109.0"/>
      <point x="1044.0" y="932.0"/>
      <point x="801.0" y="832.0" type="qcurve"/>
      <point x="730.0" y="881.0" type="line"/>
      <point x="933.0" y="963.0"/>
      <point x="1186.0" y="1126.0"/>
      <point x="1184.0" y="1242.0" type="qcurve" smooth="yes"/>
      <point x="1182.0" y="1339.0"/>
      <point x="999.0" y="1464.0"/>
      <point x="873.0" y="1464.0" type="qcurve" smooth="yes"/>
      <point x="661.0" y="1464.0"/>
      <point x="412.0" y="1293.0"/>
      <point x="417.0" y="1186.0" type="qcurve" smooth="yes"/>
      <point x="421.0" y="1077.0"/>
      <point x="637.0" y="903.0"/>
      <point x="833.0" y="809.0" type="qcurve" smooth="yes"/>
      <point x="1003.0" y="726.0"/>
      <point x="1222.0" y="535.0"/>
      <point x="1226.0" y="402.0" type="qcurve" smooth="yes"/>
      <point x="1232.0" y="214.0"/>
      <point x="866.0" y="-14.0"/>
      <point x="584.0" y="-14.0" type="qcurve" smooth="yes"/>
      <point x="342.0" y="-14.0"/>
      <point x="61.0" y="168.0"/>
    </contour>
  </outline>
</glyph>
<glyph name="three.lc" format="2">
  <advance width="1205"/>
  <outline>
    <contour>
      <point x="-71.0" y="-321.0" type="line"/>
      <point x="-22.0" y="-326.0"/>
      <point x="58.0" y="-329.0"/>
      <point x="109.0" y="-329.0" type="qcurve" smooth="yes"/>
      <point x="455.0" y="-329.0"/>
      <point x="936.0" y="-97.0"/>
      <point x="933.0" y="88.0" type="qcurve" smooth="yes"/>
      <point x="931.0" y="216.0"/>
      <point x="663.0" y="386.0"/>
      <point x="422.0" y="394.0" type="qcurve" smooth="yes"/>
      <point x="288.0" y="401.0" type="line"/>
      <point x="296.0" y="453.0" type="line"/>
      <point x="399.0" y="456.0" type="line" smooth="yes"/>
      <point x="634.0" y="462.0"/>
      <point x="975.0" y="645.0"/>
      <point x="972.0" y="776.0" type="qcurve" smooth="yes"/>
      <point x="970.0" y="881.0"/>
      <point x="806.0" y="996.0"/>
      <point x="655.0" y="996.0" type="qcurve" smooth="yes"/>
      <point x="504.0" y="996.0"/>
      <point x="237.0" y="892.0"/>
      <point x="134.0" y="815.0" type="qcurve"/>
      <point x="95.0" y="868.0" type="line"/>
      <point x="203.0" y="959.0"/>
      <point x="486.0" y="1062.0"/>
      <point x="668.0" y="1062.0" type="qcurve" smooth="yes"/>
      <point x="854.0" y="1062.0"/>
      <point x="1081.0" y="913.0"/>
      <point x="1083.0" y="784.0" type="qcurve" smooth="yes"/>
      <point x="1086.0" y="632.0"/>
      <point x="808.0" y="462.0"/>
      <point x="607.0" y="435.0" type="qcurve"/>
      <point x="606.0" y="430.0" type="line"/>
      <point x="795.0" y="416.0"/>
      <point x="1044.0" y="245.0"/>
      <point x="1044.0" y="98.0" type="qcurve" smooth="yes"/>
      <point x="1044.0" y="-122.0"/>
      <point x="524.0" y="-387.0"/>
      <point x="111.0" y="-387.0" type="qcurve" smooth="yes"/>
      <point x="52.0" y="-387.0"/>
      <point x="-49.0" y="-380.0"/>
      <point x="-93.0" y="-373.0" type="qcurve"/>
    </contour>
  </outline>
</glyph>
<glyph name="three.tab" format="2">
  <advance width="1500"/>
  <outline>
    <contour>
      <point x="3.0" y="200.0" type="qcurve" smooth="yes"/>
      <point x="3.0" y="266.0"/>
      <point x="70.0" y="355.0"/>
      <point x="103.0" y="365.0" type="qcurve"/>
      <point x="133.0" y="364.0" type="line"/>
      <point x="116.80000657019183" y="345.6000788423019"/>
      <point x="101.0" y="293.02985074626866"/>
      <point x="101.0" y="253.0" type="qcurve" smooth="yes"/>
      <point x="101.0" y="148.0"/>
      <point x="274.0" y="43.0"/>
      <point x="442.0" y="43.0" type="qcurve" smooth="yes"/>
      <point x="737.0" y="43.0"/>
      <point x="1101.0" y="312.0"/>
      <point x="1101.0" y="484.0" type="qcurve" smooth="yes"/>
      <point x="1101.0" y="629.0"/>
      <point x="807.0" y="794.0"/>
      <point x="564.0" y="809.0" type="qcurve" smooth="yes"/>
      <point x="464.0" y="814.0" type="line"/>
      <point x="475.0" y="867.0" type="line"/>
      <point x="548.0" y="871.0" type="line" smooth="yes"/>
      <point x="784.0" y="884.0"/>
      <point x="1159.0" y="1088.0"/>
      <point x="1156.0" y="1246.0" type="qcurve" smooth="yes"/>
      <point x="1154.0" y="1366.0"/>
      <point x="985.0" y="1466.0"/>
      <point x="833.0" y="1466.0" type="qcurve" smooth="yes"/>
      <point x="702.0" y="1466.0"/>
      <point x="409.0" y="1357.0"/>
      <point x="308.0" y="1265.0" type="qcurve"/>
      <point x="276.0" y="1326.0" type="line"/>
      <point x="382.0" y="1423.0"/>
      <point x="657.0" y="1532.0"/>
      <point x="839.0" y="1532.0" type="qcurve" smooth="yes"/>
      <point x="1032.0" y="1532.0"/>
      <point x="1230.0" y="1379.0"/>
      <point x="1230.0" y="1238.0" type="qcurve" smooth="yes"/>
      <point x="1230.0" y="1076.0"/>
      <point x="962.0" y="873.0"/>
      <point x="761.0" y="845.0" type="qcurve"/>
      <point x="760.0" y="839.0" type="line"/>
      <point x="946.0" y="815.0"/>
      <point x="1176.0" y="606.0"/>
      <point x="1176.0" y="451.0" type="qcurve" smooth="yes"/>
      <point x="1176.0" y="256.0"/>
      <point x="786.0" y="-18.0"/>
      <point x="436.0" y="-18.0" type="qcurve" smooth="yes"/>
      <point x="215.0" y="-18.0"/>
      <point x="3.0" y="102.0"/>
    </contour>
  </outline>
</glyph>
<glyph name="two.tab" format="2">
  <advance width="1500"/>
  <outline>
    <contour>
      <point x="52.0" y="6.0" type="qcurve"/>
      <point x="4.0" y="49.0" type="line"/>
      <point x="161.0" y="166.0" type="line" smooth="yes"/>
      <point x="775.0" y="627.0"/>
      <point x="1185.0" y="1001.0"/>
      <point x="1168.0" y="1179.0" type="qcurve" smooth="yes"/>
      <point x="1159.0" y="1307.0"/>
      <point x="923.0" y="1465.0"/>
      <point x="752.0" y="1465.0" type="qcurve" smooth="yes"/>
      <point x="595.0" y="1465.0"/>
      <point x="329.0" y="1336.0"/>
      <point x="236.0" y="1251.0" type="qcurve"/>
      <point x="203.0" y="1308.0" type="line"/>
      <point x="303.0" y="1408.0"/>
      <point x="563.0" y="1530.0"/>
      <point x="771.0" y="1530.0" type="qcurve" smooth="yes"/>
      <point x="974.0" y="1530.0"/>
      <point x="1222.0" y="1350.0"/>
      <point x="1235.0" y="1191.0" type="qcurve" smooth="yes"/>
      <point x="1259.0" y="925.0"/>
      <point x="401.0" y="240.0"/>
      <point x="262.0" y="154.0" type="qcurve"/>
      <point x="261.0" y="153.0" type="line"/>
      <point x="278.0" y="155.0"/>
      <point x="304.0" y="155.0"/>
      <point x="322.0" y="154.0" type="qcurve"/>
      <point x="514.0" y="136.0"/>
      <point x="808.0" y="99.0"/>
      <point x="998.0" y="71.0" type="qcurve"/>
      <point x="1161.0" y="308.0" type="line"/>
      <point x="1212.0" y="300.0" type="line"/>
      <point x="1080.0" y="-30.0" type="line"/>
      <point x="897.0" y="7.0"/>
      <point x="494.0" y="83.0"/>
      <point x="334.0" y="81.0" type="qcurve" smooth="yes"/>
      <point x="244.0" y="80.0"/>
      <point x="117.0" y="41.0"/>
    </contour>
  </outline>
</glyph>
